<?xml version="1.0" encoding="utf-8"?>
<!-- Generator: Adobe Illustrator 26.2.1, SVG Export Plug-In . SVG Version: 6.00 Build 0)  -->
<svg version="1.1" xmlns="http://www.w3.org/2000/svg" xmlns:xlink="http://www.w3.org/1999/xlink" x="0px" y="0px"
	 viewBox="0 0 444 908" style="enable-background:new 0 0 444 908;" xml:space="preserve">
<style type="text/css">
	.st0{fill:#055C6E;stroke:#333333;stroke-miterlimit:10;}
	.st1{fill:#055C6E;}
	.st2{fill:#1A1F1C;stroke:#FFFFFF;stroke-width:4;stroke-miterlimit:10;}
	.st3{fill:#1A1F1C;}
	.st4{display:none;}
	.st5{display:inline;stroke:#EDF1F7;stroke-width:4;stroke-miterlimit:10;}
</style>
<g id="Layer_1">
	<path class="st0" d="M378.2,27.2H65c-36,0-65.1,29.1-65.1,65.1v777.4c0,35.9,29.1,65.1,65.1,65.1h313.2c35.9,0,65.1-29.1,65.1-65.1
		V92.3C443.3,56.3,414.1,27.2,378.2,27.2L378.2,27.2z"/>
	<path class="st1" d="M424.7,866c0,28-21.8,50.7-48.8,50.7H67.3c-26.9,0-48.8-22.7-48.8-50.7V100.8c0-28,21.8-50.7,48.8-50.7h35.3
		c4,0,7.2,3.4,7.2,7.5c0,14.9,11.6,27,26,27h171.5c14.4,0.1,26-12,26-27c0-4.1,3.2-7.5,7.2-7.5h35.4c26.9,0,48.8,22.7,48.8,50.7V866
		z"/>
	<path class="st2" d="M242.7,64h-46.4c-2,0-3.6-1.6-3.6-3.6l0,0c0-2,1.6-3.6,3.6-3.6h46.4c2,0,3.6,1.6,3.6,3.6l0,0
		C246.3,62.4,244.7,64,242.7,64L242.7,64z"/>
	<circle class="st2" cx="269.4" cy="60.4" r="5.5"/>
	<path class="st3" d="M285.1,907h-127c-1.4,0-2.6-1.2-2.6-2.6c0-1.4,1.2-2.6,2.6-2.6h127c1.4,0,2.6,1.2,2.6,2.6
		C287.7,905.9,286.5,907,285.1,907z"/>
</g>
<g id="Layer_3" class="st4">
	<rect x="15.5" y="116.1" class="st5" width="409.2" height="720.9"/>
</g>
<g id="Layer_2" class="st4">
</g>
</svg>
